<?xml version="1.0" standalone="no"?>
<!DOCTYPE svg PUBLIC "-//W3C//DTD SVG 1.1//EN" "http://www.w3.org/Graphics/SVG/1.1/DTD/svg11.dtd" >
<svg xmlns="http://www.w3.org/2000/svg">
<metadata>
<json>
<![CDATA[
{
	"fontFamily": "icomoon",
	"description": "Font generated by IcoMoon.",
	"majorVersion": 0,
	"version": "Version 1.0",
	"fontId": "icomoon",
	"psName": "icomoon",
	"subFamily": "Regular",
	"fullName": "icomoon"
}
]]>
</json>
</metadata>
<defs>
<font id="icomoon" horiz-adv-x="1024">
<font-face units-per-em="1024" ascent="960" descent="-64" />
<missing-glyph horiz-adv-x="1024" />
<glyph unicode="&#x20;" horiz-adv-x="512" d="" />
<glyph unicode="&#xe900;" glyph-name="group" data-tags="group" d="M159.182 746.674c11.33-8.644 27.514-6.468 36.161 4.855 76.097 99.7 191.512 156.875 316.657 156.875s240.561-57.179 316.657-156.875c5.079-6.651 12.757-10.143 20.528-10.143 5.454 0 10.961 1.724 15.632 5.289 11.323 8.647 13.495 24.835 4.855 36.161-85.944 112.592-216.309 177.166-357.673 177.166s-271.729-64.574-357.669-177.166c-8.644-11.326-6.472-27.514 4.851-36.161zM786.229 609.061c0-44.425 36.147-80.572 80.572-80.572s80.572 36.147 80.572 80.572-36.147 80.572-80.572 80.572-80.572-36.143-80.572-80.572zM949.258 501.751c-0.186 0.062-20.487 6.292-20.487 6.292-7.351 2.245-15.336 0.862-21.49-3.744l-40.481-30.31-40.481 30.31c-6.158 4.61-14.146 5.992-21.49 3.744 0 0-20.301-6.23-20.487-6.292-32.665-10.892-54.61-41.339-54.61-75.769v-121.808c0-4.699 1.372-9.295 3.958-13.219l40.85-62.167v-163.261c0-13.298 10.778-24.076 24.076-24.076h136.371c13.298 0 24.076 10.778 24.076 24.076v163.261l40.85 62.167c2.582 3.927 3.958 8.523 3.958 13.219v121.808c0 34.43-21.949 64.877-54.613 75.769zM157.2 528.489c44.425 0 80.572 36.147 80.572 80.572s-36.147 80.572-80.572 80.572-80.575-36.143-80.575-80.572 36.147-80.572 80.575-80.572zM239.657 501.751c-0.186 0.062-20.487 6.292-20.487 6.292-7.354 2.245-15.332 0.862-21.49-3.744l-40.481-30.31-40.481 30.31c-6.154 4.61-14.146 5.992-21.49 3.744 0 0-20.301-6.23-20.487-6.292-32.665-10.892-54.61-41.339-54.61-75.769v-121.808c0-4.699 1.372-9.295 3.958-13.219l40.85-62.167v-163.261c0-13.298 10.778-24.076 24.076-24.076h136.368c13.298 0 24.076 10.778 24.076 24.076v163.261l40.85 62.167c2.582 3.927 3.958 8.523 3.958 13.219v121.808c0 34.43-21.949 64.877-54.61 75.769zM615.924 722.615c0 57.303-46.621 103.924-103.924 103.924s-103.924-46.621-103.924-103.924c0-57.306 46.621-103.924 103.924-103.924s103.924 46.618 103.924 103.924zM626.147 568.325l-0.172 0.055-29.662 9.102c-4.679 1.438-9.678-1.038-11.361-5.654l-62.371-171.132c-3.6-9.871-17.56-9.871-21.159 0l-62.371 171.132c-1.358 3.727-4.875 6.065-8.647 6.065-0.893 0-32.34-9.499-32.34-9.499-37.891-12.626-63.205-47.752-63.205-87.471v-181.031c0-1.796 0.528-3.555 1.514-5.058l65.081-99.035v-250.587c0-5.089 4.124-9.213 9.213-9.213h202.673c5.089 0 9.213 4.124 9.213 9.213v250.587l65.081 99.035c0.986 1.503 1.514 3.262 1.514 5.058v181.507c-0.003 39.546-25.417 74.614-62.998 86.926zM536.369 571.928c-2.576 2.807-6.344 4.22-10.157 4.22h-28.427c-3.81 0-7.578-1.414-10.157-4.22-3.989-4.348-4.568-10.626-1.738-15.532l15.195-22.907-7.113-60.009 14.008-37.264c1.365-3.748 6.665-3.748 8.033 0l14.008 37.264-7.113 60.009 15.195 22.907c2.834 4.906 2.255 11.185-1.734 15.532z" />
<glyph unicode="&#xe901;" glyph-name="arrowDown" data-tags="arrowDown" d="M986.317 572.314c-35.226-36.147-406.221-389.53-406.221-389.53-18.842-19.251-43.52-28.877-68.198-28.877-24.781 0-49.357 9.626-68.198 28.877 0 0-370.995 353.382-406.221 389.53s-37.683 101.171 0 139.776c37.683 38.605 90.214 41.574 136.294 0l338.227-324.198 338.022 324.198c46.182 41.574 98.816 38.605 136.294 0 37.786-38.707 35.43-103.731 0-139.776v0z" />
<glyph unicode="&#xe902;" glyph-name="arrowUP" data-tags="arrowUP" d="M37.581 323.789c35.226 36.147 406.221 389.53 406.221 389.53 18.944 19.354 43.52 28.877 68.198 28.877 24.781 0 49.459-9.626 68.198-28.877 0 0 370.995-353.382 406.221-389.53s37.683-101.069 0-139.776c-37.683-38.605-90.214-41.677-136.397 0l-338.022 324.096-338.022-323.994c-46.182-41.677-98.816-38.605-136.397 0-37.683 38.502-35.226 103.629 0 139.674z" />
<glyph unicode="&#xe903;" glyph-name="cellphone" data-tags="cellphone" d="M691.943 219.886h-318.955v517h318.955v-517zM507.646 167.39c0 14.214 11.415 25.745 25.499 25.745 14.089 0 25.499-11.531 25.499-25.745 0-14.209-11.411-25.759-25.499-25.759-14.084 0.019-25.499 11.55-25.499 25.759zM713.344 144.024h0.043v619.714h-0.010c-0.067 14.146-11.545 25.595-25.716 25.595-0.101 0-0.183-0.010-0.275-0.010v0.010h-310.117c-14.151-0.010-25.62-11.459-25.697-25.595h-0.005v-619.709h0.039c-0.010-0.27-0.039-0.535-0.039-0.814 0-13.862 11.651-25.104 26.029-25.104 0.212 0 0.419 0.029 0.631 0.034v-0.034h309.785c13.987 0 25.369 11.237 25.369 25.104 0.005 0.275-0.029 0.544-0.039 0.809z" />
<glyph unicode="&#xe905;" glyph-name="icone_calendario_branco" data-tags="icone_calendario_branco" d="M701.235 572.211h142.438v-142.541h-142.438v142.541zM701.235 397.619h142.438v-142.234h-142.438v142.234zM804.864 908.083c0 22.835-18.842 41.677-41.677 41.677h-7.475c-22.835 0-41.677-18.842-41.677-41.677v-79.053h90.829v79.053zM527.462 575.898h142.438v-142.234h-142.438v142.234zM316.416 908.083c0 22.835-18.842 41.677-41.984 41.677h-7.168c-23.040 0-41.882-18.842-41.882-41.677v-79.053h91.034v79.053zM353.792 574.054h142.131v-142.541h-142.131v142.541zM176.026 220.058h142.131v-142.541h-142.131v142.541zM179.814 395.674h142.438v-142.438h-142.438v142.438zM872.243 829.030h-67.379v-87.859c0-22.835-18.842-41.677-41.677-41.677h-7.475c-22.835 0-41.677 18.842-41.677 41.677v87.859h-397.619v-87.859c0-22.835-18.842-41.677-41.882-41.677h-7.168c-23.040 0-41.882 18.842-41.882 41.677v87.859h-73.728c-44.544 0-80.896-36.352-80.896-80.896v-720.896c0-44.544 36.352-80.896 80.896-80.896h538.624l262.861 266.957v534.835c-0.102 44.544-36.454 80.896-80.998 80.896v0zM913.92 209.51l-158.822 0.512c-44.544 0.307-72.397-29.184-72.090-73.523l0.819-150.426h-534.528c-20.173 0-41.37 13.312-41.37 37.171v641.536l805.99 0.307v-455.578zM353.792 399.667h142.131v-142.541h-142.131v142.541zM179.814 570.368h142.438v-142.541h-142.438v142.541zM527.462 401.613h142.438v-142.541h-142.438v142.541zM349.798 223.846h142.438v-142.438h-142.438v142.438z" />
<glyph unicode="&#xe906;" glyph-name="icon_aula" data-tags="icon_aula" d="M628.952 717.474v0c-2.695 0-13.743 0-42.038 0h-251.419c-46.285 0-83.806-37.521-83.806-83.806v-445.171c0-46.285 37.521-83.806 83.806-83.806h377.263c46.285 0 83.806 37.521 83.806 83.806v361.364zM754.526 189.305c0-23.217-18.821-42.038-42.038-42.038h-377.263c-0.080-0.001-0.175-0.001-0.269-0.001-23.217 0-42.038 18.821-42.038 42.038 0 0 0 0.001 0 0.001v445.17c0 23.217 18.821 42.038 42.038 42.038h250.88c0-50.122 0-83.806 0-83.806 0-46.285 37.521-83.806 83.806-83.806h84.884zM670.72 550.4c-23.217 0-42.038 18.821-42.038 42.038v83.806l125.844-125.844h-83.806zM649.162 274.459h-251.419c-11.608 0-21.019-9.411-21.019-21.019s9.411-21.019 21.019-21.019h251.419c11.608 0 21.019 9.411 21.019 21.019s-9.411 21.019-21.019 21.019zM649.162 400.303h-251.419c-11.608 0-21.019-9.411-21.019-21.019s9.411-21.019 21.019-21.019h251.419c11.608 0 21.019 9.411 21.019 21.019s-9.411 21.019-21.019 21.019z" />
<glyph unicode="&#xe907;" glyph-name="icon_data" data-tags="icon_data" d="M691.2 167.822h51.2c0.006 0 0.013 0 0.020 0 28.277 0 51.2 22.923 51.2 51.2 0 0.5-0.007 0.999-0.021 1.495l0.002 51.127c0 28.277-22.923 51.2-51.2 51.2h-51.2c-28.277 0-51.2-22.923-51.2-51.2v-51.2c-0.013-0.424-0.020-0.922-0.020-1.422 0-28.277 22.923-51.2 51.2-51.2 0.007 0 0.014 0 0.021 0zM691.2 270.222h51.2v-49.778h-51.2v51.2zM691.2 372.622h51.2c28.277 0 51.2 22.923 51.2 51.2v52.622c0 28.277-22.923 51.2-51.2 51.2h-51.2c-28.277 0-51.2-22.923-51.2-51.2v-51.2c-0.013-0.424-0.020-0.922-0.020-1.422 0-28.277 22.923-51.2 51.2-51.2 0.007 0 0.014 0 0.021 0zM691.2 475.022h51.2v-51.2h-51.2v52.622zM793.6 833.422h-102.4v25.6c0 14.138-11.462 25.6-25.6 25.6s-25.6-11.462-25.6-25.6v-25.6h-256v25.6c0 14.138-11.462 25.6-25.6 25.6s-25.6-11.462-25.6-25.6v-25.6h-102.4c-0.003 0-0.006 0-0.010 0-56.054 0-101.588-45.039-102.389-100.902l-0.001-563.275c0-56.554 45.846-102.4 102.4-102.4h563.2c56.554 0 102.4 45.846 102.4 102.4v563.2c-0.802 55.939-46.336 100.978-102.39 100.978-0.003 0-0.007 0-0.010 0zM844.8 167.822c0-28.277-22.923-51.2-51.2-51.2h-563.2c-28.277 0-51.2 22.923-51.2 51.2v460.8h665.6v-460.8zM844.8 679.822h-665.6v52.622c0 28.277 22.923 51.2 51.2 51.2h102.4v-25.6c0-14.138 11.462-25.6 25.6-25.6s25.6 11.462 25.6 25.6v24.178h256v-25.6c0-14.138 11.462-25.6 25.6-25.6s25.6 11.462 25.6 25.6v25.6h102.4c0.006 0 0.013 0 0.020 0 27.777 0 50.388-22.119 51.179-49.705l0.002-51.273zM281.6 372.622h51.2c28.277 0 51.2 22.923 51.2 51.2v52.622c0 28.277-22.923 51.2-51.2 51.2h-51.2c-28.277 0-51.2-22.923-51.2-51.2v-51.2c-0.013-0.424-0.020-0.922-0.020-1.422 0-28.277 22.923-51.2 51.2-51.2 0.007 0 0.014 0 0.021 0zM281.6 475.022h51.2v-51.2h-51.2v52.622zM486.4 372.622h51.2c28.277 0 51.2 22.923 51.2 51.2v52.622c0 28.277-22.923 51.2-51.2 51.2h-51.2c-28.277 0-51.2-22.923-51.2-51.2v-51.2c-0.013-0.424-0.020-0.922-0.020-1.422 0-28.277 22.923-51.2 51.2-51.2 0.007 0 0.014 0 0.021 0zM486.4 475.022h51.2v-51.2h-51.2v52.622zM281.6 167.822h51.2c0.006 0 0.013 0 0.020 0 28.277 0 51.2 22.923 51.2 51.2 0 0.5-0.007 0.999-0.021 1.495l0.002 51.127c0 28.277-22.923 51.2-51.2 51.2h-51.2c-28.277 0-51.2-22.923-51.2-51.2v-51.2c-0.013-0.424-0.020-0.922-0.020-1.422 0-28.277 22.923-51.2 51.2-51.2 0.007 0 0.014 0 0.021 0zM281.6 270.222h51.2v-49.778h-51.2v51.2zM486.4 167.822h51.2c0.006 0 0.013 0 0.020 0 28.277 0 51.2 22.923 51.2 51.2 0 0.5-0.007 0.999-0.021 1.495l0.002 51.127c0 28.277-22.923 51.2-51.2 51.2h-51.2c-28.277 0-51.2-22.923-51.2-51.2v-51.2c-0.013-0.424-0.020-0.922-0.020-1.422 0-28.277 22.923-51.2 51.2-51.2 0.007 0 0.014 0 0.021 0zM486.4 270.222h51.2v-49.778h-51.2v51.2z" />
<glyph unicode="&#xe908;" glyph-name="icon_discs" data-tags="icon_discs" d="M702.293 732.444h-87.324v68.551c0.084 0.997 0.132 2.158 0.132 3.33 0 23.25-18.848 42.098-42.098 42.098-1.449 0-2.881-0.073-4.292-0.216l-132.942 0.015c-0.79 0.053-1.713 0.083-2.643 0.083-23.25 0-42.098-18.848-42.098-42.098 0-0.93 0.030-1.853 0.090-2.768l-0.006-441.902 89.6-158.151c1.47-2.123 2.965-3.979 4.581-5.721 2.668-3.79 6.47-6.673 10.909-8.171 1.351-0.321 2.725-0.479 4.137-0.479s2.785 0.158 4.106 0.458l198.987-0.024c0.758-0.091 1.635-0.142 2.524-0.142 12.41 0 22.471 10.061 22.471 22.471s-10.061 22.471-22.471 22.471c-0.889 0-1.767-0.052-2.629-0.152l-162.882 0.010 73.102 128.853v327.396h42.667c0-51.484 0-90.169 0-90.169 1.687-48.675 40.873-87.663 89.471-89.028l67.258-0.003v-335.929c-1.182-24.174-20.484-43.476-44.549-44.654l-402.029-0.004c-24.174 1.182-43.476 20.484-44.654 44.549l-0.004 470.58c1.182 24.174 20.484 43.476 44.549 44.654l24.571 0.004v44.089h-24.462c-48.679-1.953-87.647-40.921-89.594-89.419l-25.89-0.181c-47.452-2.331-85.076-41.246-85.333-89.006v-470.212c1.335-48.977 40.215-88.451 88.823-90.73l403.266-0.008c48.679 1.953 87.647 40.921 89.594 89.419l22.477 0.181c48.679 1.953 87.647 40.921 89.594 89.419l0.006 381.621zM503.182 268.231l-67.129 117.76h132.836zM568.889 409.031h-133.12v234.951h133.12v-234.951zM568.889 688.924h-133.12v89.6c0 22.187 0 23.040 22.471 22.471h89.6c21.902 0 22.471 0 22.471-22.471v-89.6zM656.498 38.969h-401.92c-24.174 1.182-43.476 20.484-44.654 44.549l-0.004 470.58c0.139 23.799 18.993 43.15 42.581 44.086l24.548 0.003v-426.667c1.953-48.679 40.921-87.647 89.419-89.594l335.826-0.006c-2.031-23.446-21.031-41.855-44.554-42.947zM746.098 554.098c-23.893 0-44.658 43.236-44.658 66.56v67.129l112.071-133.689h-66.276z" />
<glyph unicode="&#xe909;" glyph-name="icon_offline" data-tags="icon_offline" d="M649.74 110.227h75.662c48.856 0 88.462 39.606 88.462 88.462v381.44l-176.071 176.071c-2.844 0-14.507 0-44.373 0h-265.387c-48.856 0-88.462-39.606-88.462-88.462v-176.071l44.373 19.911v157.013c0 24.507 19.867 44.373 44.373 44.373h264.818c0-52.907 0-88.462 0-88.462 0-48.856 39.606-88.462 88.462-88.462h88.747v-337.351c0-24.507-19.867-44.373-44.373-44.373h-72.818zM681.882 579.845c-24.507 0-44.373 19.867-44.373 44.373v88.462l132.836-132.836h-88.462zM400.566-27.728c-0.085 0-0.185 0-0.284 0-167.777 0-303.787 136.010-303.787 303.787s136.010 303.787 303.787 303.787c167.777 0 303.787-136.010 303.787-303.787-0.162-167.612-135.913-303.463-303.471-303.786zM400.566 531.489c-141.385 0-256-114.615-256-256s114.615-256 256-256c141.385 0 256 114.615 256 256s-114.615 256-256 256zM587.446 244.2c-4.2 5.447-10.728 8.921-18.067 8.921-5.209 0-10.009-1.75-13.844-4.695l-132.497-102.076v305.209c0 12.568-10.188 22.756-22.756 22.756s-22.756-10.188-22.756-22.756v-304.356l-130.276 101.831c-3.866 3.090-8.826 4.958-14.222 4.958-12.635 0-22.878-10.243-22.878-22.878 0-7.239 3.362-13.693 8.61-17.885l167.015-130.311c3.859-3.11 8.821-4.992 14.222-4.992s10.364 1.882 14.266 5.026l168.916 130.241c5.214 4.205 8.522 10.594 8.522 17.755 0 4.973-1.595 9.573-4.301 13.317z" />
<glyph unicode="&#xe90a;" glyph-name="icon_nota" data-tags="icon_nota" d="M512 708.551c-90.801 0-164.409-73.608-164.409-164.409s73.608-164.409 164.409-164.409c90.801 0 164.409 73.608 164.409 164.409s-73.608 164.409-164.409 164.409zM512 426.382c-64.88 0-117.476 52.596-117.476 117.476s52.596 117.476 117.476 117.476c64.88 0 117.476-52.596 117.476-117.476s-52.596-117.476-117.476-117.476zM771.129 416.142c17.947 35.894 28.453 78.198 28.453 122.956 0 0.773-0.003 1.546-0.009 2.318-5.038 155.541-132.433 279.812-288.853 279.812s-283.815-124.271-288.841-279.469c-0.017-1.115-0.020-1.888-0.020-2.661 0-44.758 10.506-87.062 29.185-124.581l-117.923-197.486 151.324-31.289 100.409-111.787 107.804 184.036c5.973 0 12.231 0 18.489 0s12.231 0 18.489 0l107.804-184.036 102.116 111.787 149.902 30.436zM380.302 160.142s-36.124 34.133-69.973 67.129l-96.711 28.444 67.982 114.631c39.618-51.159 95.107-88.342 159.006-104.256zM512 308.907c-0.084 0-0.184 0-0.284 0-129.917 0-235.236 105.319-235.236 235.236s105.319 235.236 235.236 235.236c129.917 0 235.235-105.318 235.236-235.235 0-0.085 0-0.185 0-0.285 0-129.76-105.191-234.951-234.951-234.951zM713.671 226.702c-33.849-32.996-69.973-67.129-69.973-67.129l-62.293 106.382c65.889 16.334 121.378 53.516 160.503 104.015l68.475-115.677z" />
<glyph unicode="&#xe90b;" glyph-name="icon_video" data-tags="icon_video" d="M262.827 719.36c-12.568 0-22.756-10.188-22.756-22.756s10.188-22.756 22.756-22.756c12.568 0 22.756 10.188 22.756 22.756s-10.188 22.756-22.756 22.756zM783.929 809.813h-543.858c-49.891-0.161-90.292-40.562-90.453-90.438v-543.873c0-50.113 40.625-90.738 90.738-90.738h543.573c50.113 0 90.738 40.625 90.738 90.738v543.858c-0.162 49.991-40.724 90.453-90.737 90.453 0 0 0 0-0.001 0zM829.156 175.502c0-24.978-20.249-45.227-45.227-45.227h-543.858c-24.978 0-45.227 20.249-45.227 45.227v407.893h634.311v-407.893zM829.156 628.622h-634.311v90.738c0 24.978 20.249 45.227 45.227 45.227h543.858c24.978 0 45.227-20.249 45.227-45.227v-90.738zM444.018 719.36c-12.568 0-22.756-10.188-22.756-22.756s10.188-22.756 22.756-22.756c12.568 0 22.756 10.188 22.756 22.756s-10.188 22.756-22.756 22.756zM353.28 719.36c-12.568 0-22.756-10.188-22.756-22.756s10.188-22.756 22.756-22.756c12.568 0 22.756 10.188 22.756 22.756 0 0.001 0 0.001 0 0.002 0 12.468-10.027 22.593-22.456 22.754zM419.84 206.791c-0.34-0.020-0.739-0.032-1.139-0.032-11.222 0-20.336 9.026-20.478 20.214v292.138c0.057 11.267 9.204 20.379 20.48 20.379 3.77 0 7.303-1.019 10.337-2.796l253.628-145.583c6.068-3.629 10.068-10.165 10.068-17.636s-4-14.006-9.974-17.584l-252.964-145.972c-2.829-1.808-6.242-2.95-9.908-3.127zM440.32 483.84v-221.298l191.716 110.649z" />
<glyph unicode="&#xe90c;" glyph-name="icon_time" data-tags="icon_time" d="M490.951 226.702h42.098v42.382h-42.098v-42.098zM316.587 335.644l28.444-28.444 28.444 28.444-28.444 28.444zM379.164 641.991l-28.444 28.444-28.444-28.444 28.444-28.444zM512 732.444c-11.625 0-21.049-9.424-21.049-21.049v-211.627h-168.96c-11.625 0-21.049-9.424-21.049-21.049s9.424-21.049 21.049-21.049h190.009c11.625 0 21.049 9.424 21.049 21.049v233.529c-0.471 11.252-9.707 20.196-21.032 20.196-0.006 0-0.012 0-0.018 0zM634.027 337.067l28.444-28.444 28.444 28.444-28.444 28.444zM640.284 643.129l28.444-28.444 28.444 28.444-28.444 28.444zM512 817.778c-186.471 0-337.636-151.165-337.636-337.636s151.165-337.636 337.636-337.636c186.471 0 337.636 151.165 337.636 337.636s-151.165 337.636-337.636 337.636zM512 184.604c-163.221 0-295.538 132.317-295.538 295.538s132.317 295.538 295.538 295.538c163.221 0 295.538-132.317 295.538-295.538s-132.317-295.538-295.538-295.538zM723.058 459.093h42.098v42.098h-42.098v-42.098z" />
<glyph unicode="&#xe90d;" glyph-name="icon_setaE" data-tags="icon_setaE" d="M673.28 42.098c-0.005 0-0.010 0-0.016 0-11.88 0-22.588 5.023-30.114 13.061l-331.968 353.019c-6.981 7.413-11.271 17.428-11.271 28.444s4.29 21.032 11.29 28.465l331.927 352.69c7.671 9.155 19.109 14.935 31.897 14.935 22.936 0 41.529-18.593 41.529-41.529 0-11.938-5.037-22.699-13.102-30.275l-305.231-324.287 305.209-324.267c7.143-7.447 11.541-17.574 11.541-28.729 0-22.936-18.593-41.529-41.529-41.529-0.057 0-0.115 0-0.172 0z" />
<glyph unicode="&#xe90e;" glyph-name="icon_setaD" data-tags="icon_setaD" d="M350.72 853.902c0.005 0 0.010 0 0.016 0 11.88 0 22.588-5.023 30.114-13.061l331.968-353.019c6.981-7.413 11.271-17.428 11.271-28.444s-4.29-21.032-11.29-28.465l-331.927-352.69c-7.671-9.155-19.109-14.935-31.897-14.935-22.936 0-41.529 18.593-41.529 41.529 0 11.938 5.037 22.699 13.102 30.275l305.231 324.287-305.493 324.551c-6.981 7.413-11.271 17.428-11.271 28.445 0 22.936 18.593 41.529 41.529 41.529 0.062 0 0.125 0 0.187 0z" />
<glyph unicode="&#xe90f;" glyph-name="icon_seg" data-tags="icon_seg" d="M512 379.733c-18.851 0-34.133-15.282-34.133-34.133v-136.533c0-18.851 15.282-34.133 34.133-34.133s34.133 15.282 34.133 34.133v136.533c0 18.851-15.282 34.133-34.133 34.133zM784.782 515.413v137.102c0 150.732-122.192 272.924-272.924 272.924s-272.924-122.192-272.924-272.924v-137.102c-42.641-56.344-68.302-127.599-68.302-204.847 0-188.513 152.82-341.333 341.333-341.333s341.333 152.82 341.333 341.333c0 77.373-25.744 148.733-69.134 205.982zM307.484 652.516c0 113.029 91.628 204.658 204.658 204.658s204.658-91.628 204.658-204.658v-68.551c-56.19 42.898-127.407 68.733-204.658 68.733s-148.468-25.835-205.482-69.337l0.824 69.154zM512 38.684c-150.732 0-272.924 122.192-272.924 272.924s122.192 272.924 272.924 272.924c149.137-3.712 269.070-123.645 272.775-272.433 0.007-0.434 0.007-0.534 0.007-0.634 0-150.653-122.129-272.782-272.782-272.782 0 0 0 0-0.001 0z" />
<glyph unicode="&#xe910;" glyph-name="icon_sair" data-tags="icon_sair" d="M196.267 433.209h581.404c0.83-0.091 1.794-0.142 2.769-0.142 14.924 0 27.022 12.098 27.022 27.022s-12.098 27.022-27.022 27.022c-0.975 0-1.938-0.052-2.887-0.152l-581.286 0.010 142.222 142.222c4.092 4.71 6.586 10.903 6.586 17.679 0 14.924-12.098 27.022-27.022 27.022-6.776 0-12.969-2.494-17.712-6.614l-186.562-186.852c-4.723-5.412-7.603-12.539-7.603-20.338s2.88-14.926 7.634-20.375l185.711-185.705c4.983-5.737 12.288-9.343 20.437-9.343 14.924 0 27.022 12.098 27.022 27.022 0 8.148-3.606 15.454-9.31 20.408zM810.382 837.12h-282.738c0 0 0 0 0 0-59.439 0-107.642-48.104-107.804-107.504v-107.82h53.76v107.804c0 29.691 24.069 53.76 53.76 53.76h282.738c0.169 0.002 0.369 0.003 0.569 0.003 29.691 0 53.76-24.069 53.76-53.76 0-0.001 0-0.002 0-0.003v-537.6c0-29.691-24.069-53.76-53.76-53.76h-283.022c-29.691 0-53.76 24.069-53.76 53.76v106.382h-54.044v-106.382c0-59.539 48.266-107.804 107.804-107.804h282.738c59.539 0 107.804 48.266 107.804 107.804v537.6c-0.162 59.416-48.365 107.52-107.804 107.52 0 0 0 0 0 0z" />
<glyph unicode="&#xe911;" glyph-name="icon_ponto" data-tags="icon_ponto" d="M670.151 448c0-87.344-70.807-158.151-158.151-158.151s-158.151 70.807-158.151 158.151c0 87.344 70.807 158.151 158.151 158.151s158.151-70.807 158.151-158.151z" />
<glyph unicode="&#xe912;" glyph-name="icon_pessoa3" data-tags="icon_pessoa3" d="M654.222 389.689l-4.836-3.698-9.387-7.111-7.68-5.12q-8.249-5.404-17.067-9.956l-9.387-4.836-8.533-4.267-9.671-3.982-9.671-3.129-10.809-3.129-9.102-1.991-12.8-1.991h-7.68c-6.358-0.739-13.725-1.161-21.191-1.161s-14.833 0.422-22.079 1.243l-7.077-0.082-12.8 1.991-9.387 2.276-10.524 2.844-9.956 3.413-9.102 3.698-10.524 4.551-7.964 3.413c-14.603 7.682-27.183 16.085-38.791 25.627l-3.876 2.817c-49.156-20.697-83.090-68.363-83.342-123.986v-75.126c119.751-110.080 339.627-92.444 441.742 0v75.378c0 0.106 0 0.233 0 0.359 0 53.885-31.812 100.339-77.679 121.608zM512 929.28c-265.804 0-481.28-215.476-481.28-481.28s215.476-481.28 481.28-481.28c265.804 0 481.28 215.476 481.28 481.28s-215.476 481.28-481.28 481.28zM783.644 170.951l-7.396-7.396c-68.241-60.998-158.805-98.282-258.077-98.282-3.771 0-7.529 0.054-11.274 0.161-2.623-0.112-6.356-0.168-10.103-0.168-96.389 0-184.044 37.398-249.245 98.476l-7.194 7.209v96.427c0.472 69.921 39.505 130.617 96.877 161.932-30.822 42.666-49.948 95.955-49.948 153.712 0 0.532 0.002 1.063 0.005 1.594 0 135.598 102.115 245.963 227.555 245.963s227.556-110.364 227.556-246.044c0.003-0.454 0.005-0.992 0.005-1.529 0-58.752-19.791-112.881-53.071-156.084 56.559-31.64 93.742-91.234 93.742-159.512 0-0.011 0-0.021 0-0.032v-96.425zM410.169 427.804v0l12.8-8.249h1.991l11.662-7.111 3.129-1.707 11.378-5.404 3.982-4.267 10.809-3.982 5.973-1.707 9.956-2.56 8.533-1.707h7.68c5.079-0.605 10.961-0.949 16.924-0.949s11.845 0.345 17.629 1.016l7.829-0.066 8.533 1.422 9.671 2.56 5.973 1.707 10.524 3.698 4.551 1.707 10.809 5.12 3.698 1.991 10.809 6.542 2.844 1.991 13.084 9.387c3.698 3.129 7.396 6.258 11.093 9.671 37.927 37.024 61.448 88.658 61.448 145.786 0 0.647-0.003 1.294-0.009 1.94 0.001 107.706-79.359 195.315-176.924 195.315s-176.924-87.609-176.924-195.413c-0.013-0.843-0.020-1.839-0.020-2.836 0-55.76 22.377-106.293 58.64-143.109 3.673-3.957 7.655-7.37 11.922-10.784z" />
<glyph unicode="&#xe913;" glyph-name="icon_pessoa2" data-tags="icon_pessoa2" d="M719.36 448c38.163 49.68 61.159 112.745 61.159 181.181 0 0.504-0.001 1.007-0.004 1.51 0 158.642-118.897 286.642-264.817 286.642s-264.818-128-264.818-286.151c-0.001-0.338-0.002-0.738-0.002-1.138 0-67.303 22.219-129.416 59.723-179.405-68.414-36.191-113.81-106.783-114.333-188.024v-112.144l8.533-8.533c75.51-70.608 177.272-113.966 289.162-113.966 4.443 0 8.869 0.068 13.279 0.204 120.244-0.016 239.426 41.798 312.244 113.762l8.533 8.533v112.071c-0.354 79.136-43.571 148.099-107.616 184.906zM515.698 858.453c113.778 0 205.653-101.831 205.653-227.556 0.002-0.341 0.003-0.744 0.003-1.147 0-66.418-27.328-126.454-71.353-169.475-4.312-4.026-8.578-7.724-12.845-11.137l-1.991-1.138-12.8-9.387-3.129-2.276-12.8-7.396-4.267-2.276-12.516-7.111-5.404-2.276-12.231-4.267-6.827-1.991-11.093-2.844-9.956-1.707h-8.818c-5.89-0.7-12.712-1.099-19.627-1.099s-13.737 0.399-20.443 1.176l-8.285-0.077-9.956 1.707-11.378 2.844-6.827 1.991-12.516 4.551-5.12 1.991-14.507 6.542-3.698 1.991-13.653 8.249-2.276 1.707c-3.129 2.844-8.818 6.258-12.231 9.956v0c-4.836 3.982-9.387 7.964-13.938 12.516-43.062 42.952-69.704 102.348-69.704 167.966 0 0.949 0.006 1.898 0.017 2.844-1.139 125.296 91.021 227.127 204.514 227.127zM768.853 175.787c-118.898-107.52-374.329-128-513.707 0v86.756c0.323 64.654 39.673 120.038 95.683 143.826l5.863-3.31c13.009-10.357 27.645-19.811 43.18-27.758l9.443-4.953 12.516-7.68 10.524-2.844 11.662-3.698 11.093-3.413 11.093-2.56 14.791-2.56h9.102c7.382-0.857 15.936-1.346 24.604-1.346s17.222 0.489 25.635 1.441l7.787-0.095 14.791 2.56 10.524 2.276 12.516 3.413 11.378 3.698 11.378 4.551 11.093 4.551 11.093 5.689q10.24 5.404 19.627 11.662l9.956 5.12 10.809 8.249 5.689 4.267c54.611-24.951 91.876-79.097 91.876-141.947 0-0.097 0-0.193 0-0.29v-87.31z" />
<glyph unicode="&#xe914;" glyph-name="icon_pessoa1" data-tags="icon_pessoa1" d="M711.111 402.489c36.793 49.909 58.886 112.621 58.886 180.493 0 0.646-0.002 1.291-0.006 1.935 0.285 158.621-115.768 286.905-257.991 286.905s-258.276-128.284-258.276-287.004c-0.002-0.431-0.003-0.94-0.003-1.45 0-68.040 22.202-130.895 59.757-181.714-68.934-22.481-117.212-86.127-117.212-161.049 0-0.088 0-0.176 0-0.263v-216.164h631.467v216.178c0 0.074 0 0.162 0 0.25 0 74.922-48.278 138.568-115.421 161.527zM311.182 584.818c0 126.862 89.884 229.547 200.818 229.547s200.818-102.969 200.818-229.547-89.884-229.547-200.818-229.547-200.818 102.684-200.818 229.547zM254.293 81.351v144.782c2.17 62.712 47.775 114.163 107.557 125.314 41.308-33.267 93.719-53.519 150.861-53.519s109.553 20.252 150.449 53.969c60.194-11.601 105.799-63.051 107.963-125.539l0.006-144.722h-517.404z" />
<glyph unicode="&#xe915;" glyph-name="icon_mic" data-tags="icon_mic" d="M512 325.689c85.774 0 155.307 69.533 155.307 155.307v230.4c0.091 1.983 0.142 4.308 0.142 6.645 0 85.774-69.533 155.307-155.307 155.307s-155.307-69.533-155.307-155.307c0-2.337 0.052-4.662 0.154-6.974l-0.012-230.071c0 0 0 0 0 0 0-85.674 69.371-155.145 155.007-155.306zM413.582 711.396c0 54.355 44.063 98.418 98.418 98.418s98.418-44.063 98.418-98.418v-230.4c0-54.355-44.063-98.418-98.418-98.418s-98.418 44.063-98.418 98.418v230.4zM796.444 476.444c0 15.709-12.735 28.444-28.444 28.444s-28.444-12.735-28.444-28.444c0-125.675-101.88-227.556-227.556-227.556s-227.556 101.88-227.556 227.556c0 15.709-12.735 28.444-28.444 28.444s-28.444-12.735-28.444-28.444c0.67-148.057 114.352-269.351 259.189-282.092l1.078-121.819c0-15.709 12.735-28.444 28.444-28.444s28.444 12.735 28.444 28.444v124.018c141.484 16.847 250.337 135.445 251.732 279.75z" />
<glyph unicode="&#xe916;" glyph-name="icon_menu" data-tags="icon_menu" d="M82.489 717.938h817.209c21.522 0 38.969-17.447 38.969-38.969v-14.791c0-21.522-17.447-38.969-38.969-38.969h-817.209c-21.522 0-38.969 17.447-38.969 38.969v14.791c0 21.522 17.447 38.969 38.969 38.969zM82.489 494.364h817.209c21.522 0 38.969-17.447 38.969-38.969v-14.791c0-21.522-17.447-38.969-38.969-38.969h-817.209c-21.522 0-38.969 17.447-38.969 38.969v14.791c0 21.522 17.447 38.969 38.969 38.969zM82.489 270.791h817.209c21.522 0 38.969-17.447 38.969-38.969v-14.791c0-21.522-17.447-38.969-38.969-38.969h-817.209c-21.522 0-38.969 17.447-38.969 38.969v14.791c0 21.522 17.447 38.969 38.969 38.969z" />
<glyph unicode="&#xe917;" glyph-name="icon_mens" data-tags="icon_mens" d="M632.036 424.107h-240.071c-13.274 0-24.036-10.761-24.036-24.036s10.761-24.036 24.036-24.036h240.071c13.274 0 24.036 10.761 24.036 24.036s-10.761 24.036-24.036 24.036zM680.107 568.036h-336.213c-13.274 0-24.036-10.761-24.036-24.036s10.761-24.036 24.036-24.036h336.213c13.274 0 24.036 10.761 24.036 24.036s-10.761 24.036-24.036 24.036zM512 832c-212.196 0-384-150.471-384-335.929 2.165-109.104 58.319-204.642 142.767-261.24l1.162-171.4 168.107 102.116c21.528-3.765 46.336-5.936 71.646-5.973 212.23 0 384.034 150.471 384.034 335.929s-171.52 336.498-383.716 336.498zM512 207.929c-28.768 0.093-56.736 3.3-83.651 9.302l-111.193-68.466 1.422 111.218c-83.559 47.427-139.622 134.785-142.215 235.446-0.292 159.648 150.179 288.501 335.637 288.501s335.929-128.853 335.929-288.142-150.471-287.858-335.929-287.858z" />
<glyph unicode="&#xe918;" glyph-name="icon_livro" data-tags="icon_livro" d="M803.271 835.698s-140.516-38.684-268.231-72.818c-15.929 0-32.142 0-48.071 0-121.742 32.711-266.24 72.818-266.24 72.818-0.085 0-0.185 0-0.285 0-53.569 0-96.996-43.426-96.996-96.996 0-0.1 0-0.2 0-0.3v-509.709c0-53.76 45.796-80.498 96.996-96.996 0 0 130.844-36.409 266.24-72.818h49.209c136.533 36.409 267.378 72.818 267.378 72.818 49.778 12.8 96.996 43.52 96.996 96.996v509.724c0 0.084 0 0.184 0 0.284 0 53.569-43.426 96.996-96.996 96.996 0 0 0 0-0.001 0zM487.822 106.667c-132.551 35.556-267.093 72.818-267.093 72.818-28.444 7.68-48.64 21.618-48.64 48.64v510.293c0 26.863 21.777 48.64 48.64 48.64l267.093-72.818v-607.573zM851.911 228.124c0-26.738-22.471-40.107-48.64-48.64 0 0-132.267-36.693-267.093-72.249v607.004l267.093 72.818c26.863 0 48.64-21.777 48.64-48.64v-509.724z" />
<glyph unicode="&#xe919;" glyph-name="icon_forum" data-tags="icon_forum" d="M474.738 664.178c0-18.066-14.645-32.711-32.711-32.711s-32.711 14.645-32.711 32.711c0 18.066 14.645 32.711 32.711 32.711s32.711-14.645 32.711-32.711zM737.564 664.178c0-18.066-14.645-32.711-32.711-32.711s-32.711 14.645-32.711 32.711c0 18.066 14.645 32.711 32.711 32.711s32.711-14.645 32.711-32.711zM606.151 664.178c0-18.066-14.645-32.711-32.711-32.711s-32.711 14.645-32.711 32.711c0 18.066 14.645 32.711 32.711 32.711s32.711-14.645 32.711-32.711zM584.249 916.196c-157.298 0-284.444-111.502-284.444-249.173-0.052-1.891-0.081-4.117-0.081-6.35 0-75.806 33.89-143.696 87.346-189.346l0.344-124.589 124.587 72.818c21.659-3.112 47.153-5.163 73.024-5.679 3.533-0.128 6.921-0.195 10.324-0.195 139.814 0 253.156 113.342 253.156 253.156 0 0.565-0.002 1.13-0.006 1.694-1.422 136.162-133.12 247.664-264.248 247.664zM584.249 456.249c-27.754 0.060-54.952 2.23-81.503 6.357l-71.813-50.161v77.653c-53.14 40.158-87.228 103.099-87.609 174.018 0 113.84 104.106 207.991 240.924 207.991 108.942 0 219.022-93.013 219.022-207.929s-85.902-207.929-219.022-207.929zM448.853 234.098c24.706 33.497 39.541 75.591 39.541 121.151 0 0.408-0.001 0.816-0.004 1.223 0 1.644 0 3.351 0 5.057l-39.538-21.049c-7.111-77.369-63.716-138.24-133.404-138.24-74.524 0-134.827 69.12-134.827 154.169-0.134 2.351-0.211 5.101-0.211 7.869 0 73.406 53.888 134.226 124.263 145.058l-17.385 36.513c-83.793-19.768-145.199-93.912-145.199-182.399 0-2.476 0.048-4.941 0.143-7.394-0.013 0.008-0.014-0.399-0.014-0.807 0-45.559 14.835-87.654 39.939-121.716-46.061-14.922-78.337-57.402-78.337-107.421 0-0.236 0.001-0.472 0.002-0.708v-102.079h423.822v102.116c0 0.117 0.001 0.254 0.001 0.393 0 50.334-32.685 93.034-77.988 108.035zM488.391 61.724h-346.169v54.044c0.864 42.606 31.72 77.758 72.273 85.25 27.711-22.344 62.886-35.946 101.238-35.946s73.527 13.602 100.963 36.246c40.828-7.791 71.684-42.943 72.546-85.459l0.001-54.135zM870.116 147.627c20.795 28.172 33.283 63.582 33.283 101.909 0 0.373-0.001 0.745-0.004 1.117 0.12 2.219 0.188 4.883 0.188 7.564 0 82.367-64.474 149.675-145.706 154.21-82.036-4.535-146.51-71.843-146.51-154.21 0-2.681 0.068-5.345 0.203-7.993-0.017 0.056-0.018-0.316-0.018-0.689 0-38.327 12.488-73.737 33.617-102.383-38.385-10.8-65.726-45.306-66.040-86.245v-36.73h356.693v36.693c-0.314 40.976-27.656 75.482-65.063 86.591zM644.267 250.596c-0.154 2.295-0.241 4.976-0.241 7.677 0 64.633 50.132 117.557 113.633 122.008 64.273-4.451 114.405-57.375 114.405-122.008 0-2.701-0.088-5.381-0.26-8.039 0.172-1.934 0.26-4.614 0.26-7.315 0-64.633-50.132-117.557-113.633-122.008-64.273 4.451-114.405 57.375-114.405 122.008 0 2.701 0.088 5.381 0.26 8.039zM611.84 56.604v-3.982c1.609 34.146 27.563 61.764 60.812 65.956 23.311-19.115 53.136-30.741 85.677-30.741s62.365 11.626 85.548 30.951c33.378-4.401 59.332-32.019 60.935-66.009l0.006 3.541h-292.978z" />
<glyph unicode="&#xe91a;" glyph-name="icon_financa" data-tags="icon_financa" d="M812.658 620.373h-209.351c-4.884 156.414-132.852 281.354-290 281.354-160.236 0-290.133-129.897-290.133-290.133 0-108.609 59.677-203.28 148.030-253.010l1.455-235.135c0-37.231 30.182-67.413 67.413-67.413h572.587c37.231 0 67.413 30.182 67.413 67.413v429.511c0 37.231-30.182 67.413-67.413 67.413zM68.551 611.556c0 135.258 109.649 244.906 244.907 244.906s244.907-109.648 244.907-244.907c0-135.258-109.648-244.907-244.907-244.907-0.2 0-0.4 0-0.6 0.001-134.918 0.485-244.146 109.913-244.307 244.891zM839.68 123.449c-0.736-14.618-12.404-26.286-26.955-27.020l-572.654-0.003c-14.618 0.736-26.286 12.404-27.020 26.955l-0.003 215.961c30.008-11.58 64.731-18.289 101.020-18.289 80.357 0 153.030 32.894 205.291 85.95l320.32 0.036v-284.444zM839.68 447.716h-286.72c25.901 37.316 43.404 82.315 48.807 130.966l210.891 1.301c14.618-0.736 26.286-12.404 27.020-26.955l0.003-105.028zM333.653 448v28.444c52.338 5.12 93.013 38.969 93.013 80.213 0 33.28-25.031 71.396-93.013 79.644v81.92h45.511c0.728-0.091 1.571-0.142 2.426-0.142 11.468 0 20.764 9.297 20.764 20.764s-9.297 20.764-20.764 20.764c-0.855 0-1.698-0.052-2.526-0.152l-45.411 0.010v27.022c-1.321 11.427-10.941 20.215-22.613 20.215s-21.292-8.789-22.603-20.11l-0.010-28.55c-50.062-6.258-89.316-39.538-89.316-79.644s35.556-74.24 88.178-79.929v-81.067h-66.276c-0.728 0.091-1.571 0.142-2.426 0.142-11.468 0-20.764-9.297-20.764-20.764s9.297-20.764 20.764-20.764c0.855 0 1.698 0.052 2.526 0.152l67.314-0.010v-28.444c1.386-11.362 10.974-20.077 22.597-20.077 11.724 0 21.378 8.867 22.62 20.26zM333.653 594.204c31.573-5.12 51.484-18.773 51.484-37.831-6.223-22.627-26.613-38.973-50.821-38.973-0.233 0-0.466 0.002-0.698 0.005l0.035 76.8zM288.427 639.147c-28.444 4.267-46.649 18.773-46.649 38.4 5.462 21.375 24.086 37.097 46.54 38.112l0.109-76.512z" />
<glyph unicode="&#xe91b;" glyph-name="icon_edit" data-tags="icon_edit" d="M871.253 700.587l-125.156 125.156c-10.173 11.673-25.065 19.008-41.671 19.008s-31.498-7.335-41.615-18.942l-463.701-463.142-64-231.538c-1.69-3.743-2.675-8.115-2.675-12.718 0-17.437 14.136-31.573 31.573-31.573 4.678 0 9.118 1.017 13.112 2.843l230.772 63.919 463.644 463.644c11.589 10.168 18.866 25.008 18.866 41.548 0 16.672-7.394 31.617-19.081 41.736zM199.111 152.462l47.218 172.373 125.156-125.156zM413.298 241.209l-125.156 125.156 271.36 271.36 125.156-125.156zM726.187 554.098l-125.156 125.156 81.636 83.911c19.911 21.333 21.902 21.049 41.813 0l83.342-83.342c20.196-20.48 21.618-20.196 0-41.813z" />
<glyph unicode="&#xe91c;" glyph-name="icon_disc" data-tags="icon_disc" d="M446.862 243.2l-67.129 117.76h134.258zM513.991 383.431h-134.258v235.236h134.258v-234.951zM513.991 663.324h-134.258v89.316c0 22.187 0 23.040 22.471 22.471h89.6c21.902 0 22.471 0 22.471-22.471v-89.6zM220.729 618.667v-471.324c1.953-48.679 40.921-87.647 89.419-89.594l403.523-0.006c48.679 1.953 87.647 40.921 89.594 89.419l0.006 380.483-157.013 179.769h-87.324v67.698c0.053 0.79 0.083 1.713 0.083 2.643 0 23.25-18.848 42.098-42.098 42.098-0.93 0-1.853-0.030-2.768-0.090l-134.418 0.006c-0.876 0.065-1.898 0.102-2.929 0.102-23.25 0-42.098-18.848-42.098-42.098 0-0.937 0.031-1.866 0.091-2.787l-0.007-440.764 89.6-158.151c1.47-2.123 2.965-3.979 4.581-5.721 2.668-3.79 6.47-6.673 10.909-8.171 1.351-0.321 2.725-0.479 4.137-0.479s2.785 0.158 4.106 0.458l198.987-0.024c0.758-0.091 1.635-0.142 2.524-0.142 12.41 0 22.471 10.061 22.471 22.471s-10.061 22.471-22.471 22.471c-0.889 0-1.767-0.052-2.629-0.152l-161.175 0.010 73.102 127.431v328.249h42.667c0-51.484 0-90.169 0-90.169 1.687-48.675 40.873-87.663 89.471-89.028l67.258-0.003v-335.929c-1.182-24.174-20.484-43.476-44.549-44.654l-403.451-0.004c-24.174 1.182-43.476 20.484-44.654 44.549l-0.004 471.433c1.182 24.174 20.484 43.476 44.549 44.654l24.571 0.004v44.089h-24.462c-48.398-1.922-87.205-40.432-89.591-88.528zM691.2 528.213c-23.893 0-44.658 43.236-44.658 66.56v67.129l112.071-133.689h-67.413z" />
<glyph unicode="&#xe91d;" glyph-name="icon_delarc" data-tags="icon_delarc" d="M863.858 658.489l-181.191 176.071c-7.044 7.672-17.121 12.464-28.318 12.464-2.764 0-5.46-0.292-8.058-0.847l-265.135 0.045c-49.436-2.789-88.467-43.558-88.467-93.442 0-0.349 0.002-0.698 0.006-1.046v-142.169c-86.426-54.487-143.004-149.433-143.004-257.593 0-167.62 135.883-303.502 303.502-303.502 108.378 0 203.488 56.806 257.179 142.267l69.576 1.263c0.933-0.037 2.029-0.057 3.129-0.057 47.128 0 85.333 38.205 85.333 85.333 0 0.020 0 0.040 0 0.061zM453.404 98.418c-141.385 0-256 114.615-256 256s114.615 256 256 256c141.385 0 256-114.615 256-256s-114.615-256-256-256zM823.182 273.067c0.005-0.266 0.008-0.579 0.008-0.893 0-26.097-19.1-47.733-44.084-51.691l-54.057-1.745c20.092 39.452 31.864 86.038 31.864 135.374 0 167.62-135.883 303.502-303.502 303.502-42.089 0-82.176-8.567-118.614-24.053l1.986 112.821c0.153 23.762 19.451 42.966 43.235 42.966 0.4 0 0.8-0.005 1.197-0.016l264.759 0.001c0-56.889 0-85.333 0-85.333 0-0.017 0-0.037 0-0.057 0-47.128 38.205-85.333 85.333-85.333 1.1 0 2.196 0.021 3.286 0.062l90.296-0.005zM735.004 647.111c-27.75 4.33-49.204 26.559-52.312 54.332l-0.026 87.89 142.222-142.222h-89.884zM587.037 500.683l13.275-13.275c7.22-7.22 7.22-18.927 0-26.147l-254.232-254.232c-7.22-7.22-18.927-7.22-26.147 0l-13.275 13.275c-7.22 7.22-7.22 18.927 0 26.147l254.232 254.232c7.22 7.22 18.927 7.22 26.147 0zM600.239 220.216l-13.275-13.275c-7.22-7.22-18.927-7.22-26.147 0l-254.232 254.232c-7.22 7.22-7.22 18.927 0 26.147l13.275 13.275c7.22 7.22 18.927 7.22 26.147 0l254.232-254.232c7.22-7.22 7.22-18.927 0-26.147z" />
<glyph unicode="&#xe91e;" glyph-name="icon_config" data-tags="icon_config" d="M512 593.92c-0.422 0.004-0.921 0.007-1.421 0.007-80.275 0-145.351-65.076-145.351-145.351s65.076-145.351 145.351-145.351c80.073 0 145.023 64.748 145.35 144.744 0.005 0.454 0.007 0.954 0.007 1.455 0 79.606-64.374 144.177-143.905 144.497zM512 362.667c-0.503-0.010-1.096-0.016-1.69-0.016-48.071 0-87.040 38.969-87.040 87.040s38.969 87.040 87.040 87.040c48.071 0 87.040-38.969 87.040-87.040 0-0.594-0.006-1.187-0.018-1.779-0.784-46.72-38.523-84.459-85.257-85.244zM918.756 347.022l-67.413 39.253c3.71 18.42 5.975 39.716 6.255 61.492-0.17 22.774-2.44 44.675-6.621 65.89l67.779 37.027c17.022 10.387 28.212 28.858 28.212 49.942 0 11.074-3.087 21.427-8.447 30.245l-56.743 101.573c-9.9 17.605-28.46 29.303-49.753 29.303-10.715 0-20.738-2.962-29.295-8.113l-68.010-39.395c-30.654 26.819-66.619 48.509-105.989 63.219l-2.385 48.568c0 31.419-25.47 56.889-56.889 56.889h-114.347c-31.419 0-56.889-25.47-56.889-56.889v-49.209c-41.754-15.491-77.72-37.181-108.775-64.344l-69.003 39.882c-8.343 5.074-18.431 8.078-29.221 8.078-20.761 0-38.924-11.121-48.858-27.73l-57.033-102.090c-4.879-8.341-7.759-18.366-7.759-29.063 0-21.328 11.451-39.982 28.54-50.149l67.682-39.401c-4.183-18.997-6.849-41.024-7.388-63.578 0.163-22.962 2.433-44.863 6.616-66.078l-67.779-36.459c-16.881-10.416-27.964-28.809-27.964-49.792 0-10.903 2.992-21.106 8.2-29.835l56.741-100.426c9.9-17.605 28.46-29.303 49.753-29.303 10.715 0 20.738 2.962 29.295 8.113l68.010 39.395c30.648-26.831 66.616-48.522 105.992-63.221l2.381-49.988c0-31.419 25.47-56.889 56.889-56.889h113.778c31.419 0 56.889 25.47 56.889 56.889v49.493c41.758 15.478 77.725 37.169 108.773 64.343l67.867-39.88c8.525-5.371 18.894-8.558 30.008-8.558 21.415 0 40.066 11.833 49.772 29.316l57.037 100.984c5.060 8.462 8.053 18.665 8.053 29.568 0 20.982-11.082 39.376-27.713 49.648zM875.52 271.644l-28.444-50.347c-4.974-8.707-14.204-14.481-24.781-14.481-5.338 0-10.333 1.471-14.601 4.029l-79.8 46.577c-40.358-46.76-95.008-80.193-157.119-93.528l-1.885-64.339c0-15.709-12.735-28.444-28.444-28.444h-56.889c-15.709 0-28.444 12.735-28.444 28.444v64c-63.381 13.442-117.59 46.248-157.586 91.834l-81.063-45.754c-4.111-2.443-9.063-3.887-14.353-3.887-10.664 0-19.957 5.868-24.827 14.552l-28.518 50.49c-2.565 4.189-4.084 9.26-4.084 14.685 0 10.629 5.83 19.896 14.467 24.779l80.071 46.723c-9.694 27.346-15.295 58.886-15.295 91.733s5.601 64.387 15.901 93.714l-80.819 44.668c-8.778 4.956-14.608 14.224-14.608 24.853 0 5.425 1.519 10.496 4.155 14.81l28.374 50.222c4.974 8.707 14.204 14.481 24.781 14.481 5.338 0 10.333-1.471 14.601-4.029l79.8-46.577c40.617 45.89 95.247 78.548 157.151 91.273l1.853 64.887c0 15.709 12.735 28.444 28.444 28.444h56.889c15.709 0 28.444-12.735 28.444-28.444v-64.569c63.381-13.442 117.59-46.248 157.586-91.834l80.209 46.323c4.139 2.486 9.134 3.957 14.472 3.957 10.578 0 19.807-5.774 24.708-14.342l28.518-50.486c2.565-4.189 4.084-9.26 4.084-14.685 0-10.629-5.83-19.896-14.467-24.779l-80.355-46.723c9.694-27.346 15.295-58.886 15.295-91.733s-5.601-64.387-15.901-93.714l80.819-44.952c9.121-4.861 15.225-14.31 15.225-25.186 0-5.059-1.321-9.81-3.636-13.926z" />
<glyph unicode="&#xe91f;" glyph-name="icon_compartilhar" data-tags="icon_compartilhar" d="M771.129 344.462c-0.121 0-0.264 0-0.408 0-71.080 0-133.296-37.95-167.492-94.695l-184.527 96.401c18.807 28.614 29.999 63.691 29.999 101.383 0 20.387-3.274 40.009-9.326 58.369l173.034 76.621c37.713-52.912 98.863-87.004 167.975-87.004 113.579 0 205.653 92.074 205.653 205.653s-92.074 205.653-205.653 205.653c-113.579 0-205.653-92.074-205.653-205.653 0-24.904 4.427-48.775 12.537-70.867l-171.125-75.089c-35.436 55.127-96.456 91.125-165.884 91.125-108.552 0-196.551-87.999-196.551-196.551s87.999-196.551 196.551-196.551c50.231 0 96.060 18.842 130.807 49.845l198.918-105.698c-3.945-14.19-6.319-30.521-6.541-47.371-0.005-0.552-0.006-1.049-0.006-1.546 0-108.238 87.744-195.982 195.982-195.982s195.982 87.744 195.982 195.982c0 107.636-86.771 195.006-194.179 195.974zM771.129 836.267c77.605 0 140.516-62.911 140.516-140.516s-62.911-140.516-140.516-140.516c-77.605 0-140.516 62.911-140.516 140.516 0.161 77.539 62.976 140.354 140.5 140.516zM252.871 307.484c-77.605 0-140.516 62.911-140.516 140.516s62.911 140.516 140.516 140.516c77.605 0 140.516-62.911 140.516-140.516-0.161-77.539-62.976-140.354-140.5-140.516zM771.129 7.964c-0.423-0.005-0.922-0.007-1.422-0.007-77.605 0-140.516 62.911-140.516 140.516s62.911 140.516 140.516 140.516c77.602 0 140.512-62.907 140.516-140.508-0.155-77.044-62.165-139.554-139.002-140.515z" />
<glyph unicode="&#xe920;" glyph-name="icon_chat" data-tags="icon_chat" d="M776.463 792.594h-529.859c-0.185 0.001-0.404 0.001-0.623 0.001-72.855 0-131.956-58.884-132.308-131.656v-370.872c-0.060-1.397-0.095-3.036-0.095-4.683 0-63.81 51.728-115.538 115.538-115.538 3.094 0 6.16 0.122 9.192 0.36l15.75-0.025 108.705-124.234 108.705 124.234h314.312c2.632-0.213 5.697-0.335 8.791-0.335 63.81 0 115.538 51.728 115.538 115.538 0 1.647-0.034 3.286-0.103 4.916l0.008 370.606c-0.35 72.807-59.452 131.694-132.308 131.694-0.437 0-0.874-0.002-1.311-0.006zM859.39 295.658c-3.444-39.705-34.835-71.097-74.234-74.519l-347.852-0.021-74.54-99.698-74.54 99.698h-50.004c-39.705 3.444-71.097 34.835-74.519 74.234l-0.021 373.009c3.59 39.574 34.931 70.808 74.235 74.209l547.868 0.021c39.705-3.444 71.097-34.835 74.519-74.234l0.021-373.009z" />
<glyph unicode="&#xe921;" glyph-name="icon_camera" data-tags="icon_camera" d="M802.133 689.778h-72.533l-24.178 48.356c-14.222 28.444-21.618 48.356-48.356 48.356h-290.133c-26.738 0-35.556-23.040-48.356-48.356l-24.178-48.356h-72.533c-53.412 0-96.711-43.299-96.711-96.711v-386.844c0-53.412 43.299-96.711 96.711-96.711h580.267c53.412 0 96.711 43.299 96.711 96.711v386.844c0 53.412-43.299 96.711-96.711 96.711zM850.489 206.222c0-26.706-21.65-48.356-48.356-48.356h-580.267c-26.706 0-48.356 21.65-48.356 48.356v386.844c0 26.706 21.65 48.356 48.356 48.356h96.711l22.756 48.356c17.067 28.444 21.618 48.356 48.356 48.356h241.778c26.738 0 31.289-20.196 48.356-48.356l24.178-48.356h96.711c26.706 0 48.356-21.65 48.356-48.356v-386.844zM512 593.067c-106.824 0-193.422-86.598-193.422-193.422s86.598-193.422 193.422-193.422c106.824 0 193.422 86.598 193.422 193.422s-86.598 193.422-193.422 193.422zM512 254.578c-80.118 0-145.067 64.949-145.067 145.067s64.949 145.067 145.067 145.067c80.118 0 145.067-64.949 145.067-145.067s-64.949-145.067-145.067-145.067z" />
<glyph unicode="&#xe922;" glyph-name="icon_busca" data-tags="icon_busca" d="M897.707 108.658l-203.093 199.111c52.885 56.996 85.333 133.599 85.333 217.781 0 0.036 0 0.073 0 0.109-1.126 180.425-147.654 326.258-328.243 326.258-0.702 0-1.404-0.002-2.105-0.007-0.656 0.007-1.558 0.011-2.462 0.011-180.39 0-326.794-145.512-328.238-325.562 1.763-180.078 148.043-325.267 328.233-325.267 0.905 0 1.81 0.004 2.713 0.011 0.055-0.001 0.283-0.002 0.512-0.002 78.826 0 151.241 27.452 208.204 73.318l203.021-201.033c4.614-4.525 10.941-7.318 17.92-7.318s13.306 2.793 17.924 7.322c4.642 4.5 7.525 10.799 7.525 17.772 0 6.832-2.769 13.018-7.245 17.496zM449.707 250.88c-0.425-0.002-0.928-0.004-1.432-0.004-152.525 0-276.322 123.002-277.608 275.224-0.001 154.703 125.312 280.015 279.893 280.015s279.893-125.313 279.893-279.893c-1.439-152.227-125.176-275.076-277.606-275.076-1.104 0-2.207 0.006-3.308 0.019z" />
<glyph unicode="&#xe923;" glyph-name="icon_boleto" data-tags="icon_boleto" d="M587.662 481.564h50.347v-318.009h-50.347v318.009zM789.618 851.342h-555.236c0 0-0.001 0-0.002 0-55.568 0-100.653-44.886-100.976-100.378v-605.897c0-55.768 45.209-100.978 100.978-100.978h555.236c55.768 0 100.978 45.209 100.978 100.978v605.867c0 55.768-45.209 100.978-100.978 100.978zM839.964 144.782c-0.16-27.741-22.606-50.186-50.331-50.347h-555.251c-27.741 0.16-50.186 22.606-50.347 50.331v505.189h656.213v-504.889zM839.964 700.018h-656.213v50.916c0.161 27.84 22.768 50.347 50.63 50.347 0 0 0.001 0 0.001 0h555.236c27.741-0.16 50.186-22.606 50.347-50.331v-50.646zM337.351 481.564h50.347v-318.009h-50.347v318.009zM411.876 481.564h96.427v-318.009h-96.427v318.009zM662.471 481.564h96.427v-318.009h-96.711v318.009zM528.498 481.564h28.444v-318.009h-28.444v318.009zM259.698 481.564h50.347v-318.009h-50.347v318.009z" />
<glyph unicode="&#xe924;" glyph-name="icon_aulas" data-tags="icon_aulas" d="M682.667 303.502h-219.876c-13.589 0-24.604-11.016-24.604-24.604s11.016-24.604 24.604-24.604h219.876c13.589 0 24.604 11.016 24.604 24.604s-11.016 24.604-24.604 24.604zM682.667 426.382h-219.876c-13.589 0-24.604-11.016-24.604-24.604s11.016-24.604 24.604-24.604h219.876c13.589 0 24.604 11.016 24.604 24.604s-11.016 24.604-24.604 24.604zM682.667 770.844h-293.547c-53.486-2.106-96.312-44.932-98.412-98.222l-28.451-0.195c-52.543-2.194-94.323-45.266-94.436-98.122v-491.531c2.106-53.486 44.932-96.312 98.222-98.412l369.973-0.006c53.486 2.106 96.312 44.932 98.412 98.222l24.468 0.195c53.486 2.106 96.312 44.932 98.412 98.222l0.006 392.729zM634.88 33.564h-369.778c-26.684 1.191-48.018 22.524-49.205 49.099l-0.004 491.63c0.141 26.154 20.903 47.413 46.847 48.353l27.108 0.002v-441.742c2.106-53.486 44.932-96.312 98.222-98.412l294.595-0.006c-1.272-26.103-21.802-47.027-47.618-48.915zM805.547 181.191c-1.191-26.684-22.524-48.018-49.099-49.205l-369.888-0.004c-24.893 3.112-44.119 23.612-45.223 48.816l-0.004 491.913c1.191 26.684 22.524 48.018 49.099 49.205l245.87 0.004c0-56.889 0-98.987 0-98.987 1.839-53.482 44.883-96.328 98.275-97.846l73.814-0.003v-344.178zM733.298 574.293c-26.169 0-50.631 47.502-50.631 72.818v73.956l122.88-146.773h-72.249z" />
<glyph unicode="&#xe925;" glyph-name="icon_audio" data-tags="icon_audio" d="M597.333 789.333v-50.062c139.412-24.252 244.063-144.337 244.063-288.866 0-0.846-0.004-1.691-0.011-2.535 0.001-145.791-97.564-258.715-244.052-290.858v-50.347c166.897 26.28 293.024 169.077 293.024 341.333s-126.127 315.053-291.068 341.079zM743.822 448c-0.287 85.495-63.394 156.165-145.56 168.279l-0.929-48.812c55.871-11.931 97.163-60.877 97.163-119.467s-41.292-107.535-96.362-119.323l-0.801-49.068c83.095 12.226 146.202 82.896 146.489 168.361zM475.307 740.693l-219.307-146.204h-73.387c-27.020 0-48.924-21.904-48.924-48.924v-195.129c0-27.020 21.904-48.924 48.924-48.924h73.387l219.591-146.489c27.020 0 48.924 21.904 48.924 48.924v488.107c-0.161 26.898-22.003 48.641-48.924 48.641-0.1 0-0.2 0-0.301-0.001zM256 374.898c0-13.51-10.952-24.462-24.462-24.462h-24.462c-13.51 0-24.462 10.952-24.462 24.462v146.204c0 13.51 10.952 24.462 24.462 24.462h24.462c13.51 0 24.462-10.952 24.462-24.462v-146.489zM475.591 204.231l-170.667 106.667v274.489l170.667 106.667v-488.107z" />
<glyph unicode="&#xe926;" glyph-name="icon_atend" data-tags="icon_atend" d="M426.667 540.16c23.564 0 42.667 19.103 42.667 42.667s-19.103 42.667-42.667 42.667c-23.564 0-42.667-19.103-42.667-42.667-0.001-0.085-0.001-0.185-0.001-0.285 0-23.407 18.975-42.382 42.382-42.382 0.1 0 0.201 0 0.301 0.001zM256 540.16c23.564 0 42.667 19.103 42.667 42.667s-19.103 42.667-42.667 42.667c-23.564 0-42.667-19.103-42.667-42.667-0.001-0.085-0.001-0.185-0.001-0.285 0-23.407 18.975-42.382 42.382-42.382 0.1 0 0.201 0 0.301 0.001zM597.333 540.16c23.564 0 42.667 19.103 42.667 42.667s-19.103 42.667-42.667 42.667c-23.564 0-42.667-19.103-42.667-42.667-0.001-0.085-0.001-0.185-0.001-0.285 0-23.407 18.975-42.382 42.382-42.382 0.1 0 0.201 0 0.301 0.001zM836.836 649.671c0-8.249 1.422-16.213 1.422-24.462-0.152-18.898-1.698-37.308-4.54-55.287 37.663-40.286 60.649-96.15 61.143-157.374-2.956-98.133-59.271-182.353-140.776-224.979l-1.445-101.097-96.711 64.569c-22.045-4.847-47.379-7.643-73.359-7.68-0.865-0.010-1.854-0.016-2.844-0.016-62.133 0-119.097 22.135-163.435 58.95-14.939-0.339-30.584-2.331-46.513-2.331-11.378 0-22.471 0-33.564 1.422 59.908-66.326 146.218-107.827 242.22-107.827 1.345 0 2.687 0.008 4.028 0.024 23.847 0.054 47.374 2.121 70.268 6.039l156.514-98.201v160.711c84.362 54.763 139.946 147.656 142.217 253.674-1.46 94.792-45.772 178.608-114.303 233.395zM345.884 263.964c28.002-4.034 60.974-6.7 94.434-7.382 4.932-0.195 9.712-0.299 14.517-0.299 180.973 0 327.68 146.707 327.68 327.68 0 0.8-0.003 1.6-0.009 2.399 0.001 177.939-170.666 322.437-341.333 322.437-203.947 0-369.778-144.498-369.778-322.56-0.064-2.396-0.1-5.218-0.1-8.048 0-98.351 44.017-186.421 113.427-245.585l0.452-161.087zM129.138 582.542c0 148.764 134.827 269.369 312.889 269.369 142.222 0 284.444-120.604 284.444-269.369s-111.218-269.369-284.444-269.369c-35.976 0.050-71.26 2.84-105.704 8.174l-92.839-65.062v100.693c-69.1 51.951-113.537 133.485-114.346 225.434z" />
<glyph unicode="&#xe927;" glyph-name="icon_arc" data-tags="icon_arc" d="M693.191 493.227h-362.382c-11.427-1.321-20.215-10.941-20.215-22.613s8.789-21.292 20.11-22.603l362.488-0.010c0.762-0.091 1.645-0.142 2.54-0.142 12.568 0 22.756 10.188 22.756 22.756s-10.188 22.756-22.756 22.756c-0.895 0-1.778-0.052-2.646-0.152zM693.191 357.262h-362.382c-11.427-1.321-20.215-10.941-20.215-22.613s8.789-21.292 20.11-22.603l362.488-0.010c11.427 1.321 20.215 10.941 20.215 22.613s-8.789 21.292-20.11 22.603zM783.929 810.382h-543.858c-50.344-2.191-90.342-43.482-90.453-94.14v-540.455c0 0 0 0 0 0 0-49.699 40.208-90.007 89.869-90.168h540.46c0.025 0 0.054 0 0.084 0 50.912 0 92.442 40.167 94.629 90.54l0.007 543.771c-0.322 49.926-40.789 90.293-90.722 90.453zM829.156 176.071c-2.126-25.567-23.4-45.511-49.333-45.511-0.056 0-0.113 0-0.169 0h-540.436c-24.821 0-44.942 20.121-44.942 44.942v540.444c0.079 25.814 20.022 46.946 45.342 48.914l544.311 0.011c24.913-0.16 45.066-20.313 45.227-45.211v-543.589zM693.191 629.191h-362.382c-11.427-1.321-20.215-10.941-20.215-22.613s8.789-21.292 20.11-22.603l362.488-0.010c11.427 1.321 20.215 10.941 20.215 22.613s-8.789 21.292-20.11 22.603z" />
<glyph unicode="&#xe928;" glyph-name="icon_alarme" data-tags="icon_alarme" d="M156.16 733.867c0 0.084-0.001 0.184-0.001 0.284 0 43.044 34.894 77.938 77.938 77.938 0 0 0 0 0.001 0h52.053v51.769h-52.053c-71.792 0-129.991-58.199-129.991-129.991v-51.769h52.053v51.769zM702.293 473.884h-156.16v182.044c0 14.374-11.653 26.027-26.027 26.027s-26.027-11.653-26.027-26.027v-207.929c0-14.296 11.589-25.884 25.884-25.884h182.044c14.296 0 25.884 11.589 25.884 25.884s-11.589 25.884-25.884 25.884zM884.053 448c0 0.102 0 0.224 0 0.345 0 201.081-163.008 364.089-364.089 364.089s-364.089-163.008-364.089-364.089c0-137.264 75.96-256.787 188.138-318.827l-83.462-97.376h77.938l69.689 69.689c33.51-11.294 72.1-17.811 112.213-17.811s78.704 6.517 114.771 18.551l67.131-70.429h77.938l-85.333 96.427c113.567 63.047 189.156 182.267 189.156 319.142 0 0.102 0 0.204 0 0.305zM520.249 135.111c-172.804 0-312.889 140.085-312.889 312.889s140.085 312.889 312.889 312.889c172.804 0 312.889-140.085 312.889-312.889s-140.085-312.889-312.889-312.889zM806.116 863.858h-52.053v-51.769h52.053c43.044 0 77.938-34.894 77.938-77.938v-52.053h52.053v51.769c0 71.792-58.199 129.991-129.991 129.991z" />
<glyph unicode="&#xe929;" glyph-name="circulo_grafico" data-tags="circulo_grafico" d="M1024 448c0-282.769-229.231-512-512-512s-512 229.231-512 512c0 282.769 229.231 512 512 512s512-229.231 512-512zM932.238 718.95c-89.016 137.794-243.977 229.003-420.238 229.003-276.119 0-499.953-223.834-499.953-499.953s223.834-499.953 499.953-499.953c276.119 0 499.953 223.834 499.953 499.953 0 99.858-29.274 192.873-79.715 270.95zM963.765 448c0-249.507-202.258-451.765-451.765-451.765s-451.765 202.258-451.765 451.765c0 249.507 202.258 451.765 451.765 451.765s451.765-202.258 451.765-451.765zM512 809.412c-199.608 0-361.412-161.804-361.412-361.412s161.804-361.412 361.412-361.412c199.608 0 361.412 161.804 361.412 361.412s-161.804 361.412-361.412 361.412z" />
<glyph unicode="&#xe936;" glyph-name="price_tags" data-tags="price_tags" d="M1232 0h-384c-26.4 0-63.274 15.274-81.942 33.942l-476.116 476.116c-18.668 18.668-18.668 49.214 0 67.882l412.118 412.118c18.668 18.668 49.214 18.668 67.882 0l476.118-476.118c18.666-18.666 33.94-55.54 33.94-81.94v-384c0-26.4-21.6-48-48-48zM992 384c-53.020 0-96-42.98-96-96s42.98-96 96-96 96 42.98 96 96-42.98 96-96 96zM128 544l544-544h-80c-26.4 0-63.274 15.274-81.942 33.942l-476.116 476.116c-18.668 18.668-18.668 49.214 0 67.882l412.118 412.118c18.668 18.668 49.214 18.668 67.882 0l30.058-30.058-416-416z" />
</font>
</defs>
</svg>
